<svg width="121" height="121" viewBox="0 0 121 121" fill="none" xmlns="http://www.w3.org/2000/svg">
<g clip-path="url(#clip0_7055_1164)">
<path d="M94.6992 0.54361H14.1301C10.2558 0.54361 7.10376 3.69564 7.10376 7.56998V113.434C7.10376 117.308 10.2558 120.46 14.1301 120.46H67.0621C68.3554 120.46 69.4043 119.412 69.4043 118.118C69.4043 116.825 68.3554 115.776 67.0621 115.776H14.1301C12.8387 115.776 11.788 114.725 11.788 113.434V7.56998C11.788 6.27853 12.8387 5.22786 14.1301 5.22786H94.6992C95.9906 5.22786 97.0413 6.27853 97.0413 7.56998V54.2818C97.0413 55.5751 98.0901 56.6239 99.3834 56.6239C100.677 56.6239 101.726 55.5751 101.726 54.2818V7.56998C101.726 3.69564 98.5735 0.54361 94.6992 0.54361Z" fill="#1E959B"/>
<path d="M101.039 60.7198C100.604 60.2839 99.9994 60.0335 99.3834 60.0335C98.7674 60.0335 98.1631 60.2839 97.7275 60.7198C97.2919 61.1556 97.0413 61.7597 97.0413 62.3757C97.0413 62.9916 97.2916 63.5959 97.7275 64.0313C98.1631 64.4669 98.7674 64.7178 99.3834 64.7178C99.9994 64.7178 100.604 64.4672 101.039 64.0313C101.475 63.5959 101.726 62.9916 101.726 62.3757C101.726 61.7597 101.475 61.1554 101.039 60.7198Z" fill="#1E959B"/>
<path d="M23.2806 13.8773C22.8452 13.4414 22.2409 13.1911 21.625 13.1911C21.009 13.1911 20.4047 13.4414 19.9691 13.8773C19.5334 14.3132 19.2828 14.9172 19.2828 15.5332C19.2828 16.1492 19.5332 16.7534 19.9691 17.1888C20.4047 17.6247 21.009 17.8753 21.625 17.8753C22.2409 17.8753 22.8452 17.6247 23.2806 17.1888C23.7165 16.7534 23.9671 16.1492 23.9671 15.5332C23.9671 14.9172 23.7165 14.3129 23.2806 13.8773Z" fill="#1E959B"/>
<path d="M87.2044 28.1807C85.9111 28.1807 84.8623 29.2295 84.8623 30.5229V58.1599H76.4307V29.9219L89.0118 17.3407C89.9264 16.4261 89.9264 14.943 89.0118 14.0282C88.097 13.1138 86.6144 13.1138 85.6994 14.0282L60.9825 38.7453L46.678 24.4411C45.7631 23.5267 44.2806 23.5267 43.3655 24.4411L23.9671 43.8395V24.9732C23.9671 23.6799 22.9183 22.6311 21.625 22.6311C20.3316 22.6311 19.2828 23.6799 19.2828 24.9732V60.502C19.2828 61.7954 20.3316 62.8442 21.625 62.8442H87.2044C88.4977 62.8442 89.5465 61.7954 89.5465 60.502V30.5229C89.5465 29.2295 88.4977 28.1807 87.2044 28.1807ZM32.3987 58.1599H23.9671V50.4644L32.3987 42.0328V58.1599ZM45.5146 58.1599H37.083V37.3483L45.0218 29.4094L45.5146 29.9022V58.1599ZM58.6305 58.1599H50.1989V34.5867L58.6305 43.0183V58.1599ZM71.7464 58.1599H63.3148V43.038L71.7464 34.6063V58.1599Z" fill="#1E959B"/>
<path d="M42.9383 69.402H21.625C20.3316 69.402 19.2828 70.4508 19.2828 71.7442C19.2828 73.0375 20.3316 74.0863 21.625 74.0863H42.9383C44.2316 74.0863 45.2804 73.0375 45.2804 71.7442C45.2804 70.4508 44.2316 69.402 42.9383 69.402Z" fill="#1E959B"/>
<path d="M42.9383 80.6442H21.625C20.3316 80.6442 19.2828 81.693 19.2828 82.9864C19.2828 84.2797 20.3316 85.3285 21.625 85.3285H42.9383C44.2316 85.3285 45.2804 84.2797 45.2804 82.9864C45.2804 81.693 44.2316 80.6442 42.9383 80.6442Z" fill="#1E959B"/>
<path d="M42.9383 91.8864H21.625C20.3316 91.8864 19.2828 92.9352 19.2828 94.2285C19.2828 95.5219 20.3316 96.5707 21.625 96.5707H42.9383C44.2316 96.5707 45.2804 95.5219 45.2804 94.2285C45.2804 92.9352 44.2316 91.8864 42.9383 91.8864Z" fill="#1E959B"/>
<path d="M42.9383 103.129H21.625C20.3316 103.129 19.2828 104.177 19.2828 105.471C19.2828 106.764 20.3316 107.813 21.625 107.813H42.9383C44.2316 107.813 45.2804 106.764 45.2804 105.471C45.2804 104.177 44.2316 103.129 42.9383 103.129Z" fill="#1E959B"/>
<path d="M89.5467 70.8073C83.5436 70.8073 78.0316 72.9494 73.7341 76.5087L73.6983 76.4729V71.4383C73.6983 70.1449 72.6494 69.0961 71.3561 69.0961C70.0628 69.0961 69.014 70.1449 69.014 71.4383V71.7886L67.0075 69.7821C66.0927 68.8678 64.6101 68.8678 63.695 69.7821C62.7804 70.6967 62.7804 72.1798 63.695 73.0946L65.7015 75.1011H65.3512C64.0578 75.1011 63.009 76.1499 63.009 77.4432C63.009 78.7365 64.0578 79.7854 65.3512 79.7854H70.3858L70.4216 79.8212C66.8623 84.1187 64.7202 89.6307 64.7202 95.6338C64.7202 109.323 75.8575 120.46 89.5467 120.46C103.236 120.46 114.373 109.323 114.373 95.6338C114.373 81.9446 103.236 70.8073 89.5467 70.8073ZM89.5467 115.776C78.4401 115.776 69.4044 106.74 69.4044 95.6338C69.4044 90.9229 71.0343 86.588 73.7542 83.1538L77.092 86.4916C75.2061 89.0538 74.0887 92.2152 74.0887 95.6338C74.0887 104.157 81.023 111.092 89.5467 111.092C98.0704 111.092 105.005 104.157 105.005 95.6338C105.005 87.1101 98.0704 80.1758 89.5467 80.1758C86.1281 80.1758 82.9667 81.2932 80.4045 83.1791L77.0667 79.8413C80.5009 77.1214 84.8358 75.4915 89.5467 75.4915C100.653 75.4915 109.689 84.5272 109.689 95.6338C109.689 106.74 100.653 115.776 89.5467 115.776ZM89.5467 102.66C93.421 102.66 96.5731 99.5081 96.5731 95.6338C96.5731 91.7595 93.421 88.6074 89.5467 88.6074C88.4635 88.6074 87.4367 88.8543 86.5193 89.2941L83.7713 86.5461C85.4419 85.4805 87.4226 84.86 89.5467 84.86C95.4873 84.86 100.32 89.6932 100.32 95.6338C100.32 101.574 95.4873 106.408 89.5467 106.408C83.6061 106.408 78.7729 101.574 78.7729 95.6338C78.7729 93.5097 79.3934 91.529 80.4588 89.8584L83.207 92.6064C82.7672 93.5238 82.5203 94.5503 82.5203 95.6338C82.5203 99.5081 85.6724 102.66 89.5467 102.66ZM89.691 93.2989C90.9152 93.3741 91.8888 94.3911 91.8888 95.6338C91.8888 96.9252 90.8381 97.9759 89.5467 97.9759C88.304 97.9759 87.287 97.0023 87.2118 95.7781C87.2598 95.7811 87.3076 95.7851 87.3559 95.7851C87.9555 95.7851 88.5546 95.5563 89.012 95.0991C89.5059 94.6051 89.7306 93.9456 89.691 93.2989Z" fill="#1E959B"/>
</g>
<defs>
<clipPath id="clip0_7055_1164">
<rect width="119.917" height="119.917" fill="white" transform="translate(0.780029 0.54361)"/>
</clipPath>
</defs>
</svg>
