<svg width="120" height="121" viewBox="0 0 120 121" fill="none" xmlns="http://www.w3.org/2000/svg">
<g clip-path="url(#clip0_7055_1129)">
<path d="M85.5888 0.54361H14.719C7.11252 0.553453 0.948564 6.71741 0.938721 14.3239V85.0303C0.948564 92.6368 7.11252 98.8007 14.719 98.8106H36.3736V94.8734H14.719C9.28561 94.867 4.88233 90.4637 4.87594 85.0303V51.7274H17.5183C18.685 51.642 19.5617 50.6272 19.4764 49.4603C19.4599 49.2354 19.4077 49.0144 19.3216 48.806C17.572 44.8245 19.3811 40.1786 23.3626 38.429C27.3441 36.6794 31.9901 38.4885 33.7397 42.47C34.6268 44.4888 34.6268 46.7872 33.7397 48.806C33.2534 49.8233 33.684 51.0421 34.7013 51.5283C34.9644 51.6541 35.2515 51.722 35.5429 51.7276H48.1853V63.5393C47.5349 63.4286 46.8764 63.3739 46.2167 63.3759C39.6932 63.3737 34.4033 68.6601 34.4009 75.1833C34.3991 79.8831 37.184 84.1366 41.492 86.0149L43.0669 82.4084C39.079 80.6735 37.2524 76.0345 38.987 72.0466C40.2385 69.1693 43.079 67.3097 46.2167 67.3131C47.3016 67.3129 48.3745 67.5395 49.3665 67.9785C50.3628 68.4133 51.5233 67.9581 51.9581 66.9617C52.0664 66.7137 52.1223 66.4459 52.1225 66.1752V51.7274H62.1329C62.0209 52.3775 61.9648 53.0363 61.9655 53.696C61.9774 59.3051 65.9217 64.137 71.4149 65.2714L72.2023 61.4149C68.5402 60.6572 65.9109 57.4356 65.9028 53.696C65.9025 52.6111 66.1292 51.5382 66.5682 50.5462C67.003 49.5499 66.5477 48.3894 65.5514 47.9546C65.3033 47.8463 65.0356 47.7904 64.7649 47.7902H52.1225V37.7798C52.7726 37.8918 53.4314 37.9479 54.0911 37.9471C60.6146 37.9471 65.9028 32.659 65.9028 26.1355C65.9028 19.612 60.6146 14.3239 54.0911 14.3239C53.4314 14.3231 52.7726 14.3792 52.1225 14.4912V4.48082H85.5888C91.0222 4.48722 95.4255 8.8905 95.4319 14.3239V47.7902H82.7895C81.7023 47.7907 80.8214 48.6726 80.8219 49.7598C80.8221 50.0305 80.878 50.2982 80.9862 50.5462C81.4252 51.5382 81.6519 52.6111 81.6516 53.696H85.5888C85.5896 53.0363 85.5335 52.3775 85.4215 51.7274H97.4005C98.4876 51.7274 99.3691 50.846 99.3691 49.7588V14.3239C99.3592 6.71741 93.1953 0.553453 85.5888 0.54361ZM54.0911 18.2611C58.44 18.2611 61.9655 21.7866 61.9655 26.1355C61.9655 30.4844 58.44 34.0099 54.0911 34.0099C53.0062 34.0102 51.9333 33.7835 50.9413 33.3445C49.945 32.9097 48.7845 33.365 48.3497 34.3613C48.2414 34.6094 48.1855 34.8771 48.1853 35.1478V47.6268H38.1887C38.2874 47.0301 38.3386 46.4264 38.3423 45.8216C38.3423 45.7861 38.3423 45.7546 38.3423 45.7192C38.3423 45.6838 38.3423 45.6779 38.3423 45.6582C38.3423 39.1347 33.0541 33.8465 26.5306 33.8465C20.0071 33.8465 14.719 39.1347 14.719 45.6582C14.719 45.6779 14.719 45.6995 14.719 45.7192C14.719 45.7389 14.719 45.7861 14.719 45.8216C14.7227 46.4264 14.7738 47.0301 14.8725 47.6268H4.87594V14.3239C4.88233 8.8905 9.28561 4.48722 14.719 4.48082H48.1853V17.1232C48.1858 18.2104 49.0677 19.0913 50.1549 19.0908C50.4256 19.0906 50.6933 19.0347 50.9413 18.9265C51.9333 18.4875 53.0062 18.2608 54.0911 18.2611Z" fill="#1E959B"/>
<path d="M114.844 85.1583L98.2943 73.762L91.9377 56.7788C91.5585 55.7598 90.4251 55.2414 89.4061 55.6206C89.3696 55.6341 89.3335 55.6489 89.2978 55.6646L76.5018 61.3244C75.5426 61.7479 75.0839 62.849 75.4585 63.8284C75.6711 64.3796 75.8699 64.797 76.0806 65.2301C76.2912 65.6632 76.4861 66.0687 76.7243 66.7085C78.2524 70.7916 76.195 75.3426 72.1197 76.8921C68.0464 78.4156 63.5093 76.3488 61.9856 72.2752C61.6034 71.2535 61.4378 70.1637 61.4991 69.0748C61.5562 67.9891 60.7222 67.0626 59.6365 67.0055C59.3644 66.9912 59.0925 67.0336 58.8375 67.1298L45.1596 72.2816C44.1441 72.6643 43.6298 73.7967 44.01 74.8133L48.9197 87.9301C48.2688 88.0487 47.6297 88.2251 47.0101 88.4577C40.8841 90.7405 37.7687 97.5573 40.0516 103.683C42.3344 109.809 49.1512 112.925 55.2773 110.642C55.908 110.407 56.5175 110.119 57.0992 109.78L60.6191 119.182C61.0005 120.2 62.1349 120.716 63.1532 120.335C63.1544 120.334 63.1554 120.334 63.1566 120.333L82.6616 112.985C83.8868 115.618 86.1414 117.631 88.8962 118.552L90.1403 114.811C88.5177 114.265 87.1692 113.112 86.3764 111.595L92.3117 109.36C94.2614 114.844 99.4551 118.504 105.275 118.497V114.559C99.8527 114.526 95.4652 110.139 95.432 104.716C95.432 104.194 95.2243 103.694 94.8552 103.325L88.0005 96.4699C86.9842 95.4448 86.8695 93.831 87.7308 92.6725C88.2323 91.9955 89.0064 91.5737 89.847 91.5189C90.6889 91.448 91.5179 91.758 92.107 92.3634L105.852 106.108L108.635 103.325L104.568 99.2575C105.57 96.261 105.509 93.0106 104.393 90.0542L100.704 80.2013L112.6 88.3927C114.177 89.4996 115.117 91.305 115.118 93.2315V118.66H119.055V93.2315C119.053 90.0146 117.481 87.0014 114.844 85.1583ZM100.706 91.4342C101.25 92.8797 101.447 94.4324 101.281 95.9679L94.8906 89.5798C92.2529 86.8747 87.922 86.8203 85.2169 89.4577C82.5117 92.0954 82.4574 96.4264 85.0948 99.1315C85.1349 99.1726 85.1755 99.2134 85.2169 99.2535L91.4436 105.48L63.6232 115.959L59.871 105.933C59.6375 105.31 59.105 104.847 58.4556 104.703C58.3153 104.672 58.1721 104.656 58.0284 104.655C57.5134 104.655 57.0188 104.856 56.6504 105.216C53.4893 108.203 48.5053 108.062 45.5187 104.9C42.532 101.739 42.6735 96.7551 45.8349 93.7685C46.5785 93.0659 47.4516 92.5152 48.4059 92.1466C49.0326 91.9143 49.6872 91.7662 50.3528 91.7056C50.7623 91.6554 51.1752 91.6417 51.5871 91.6643C52.6728 91.7211 53.5993 90.8872 53.6561 89.8015C53.6704 89.5316 53.6288 89.2616 53.5341 89.0086L48.3921 75.2796L57.7666 71.7499C58.997 78.1562 65.1878 82.352 71.5941 81.1219C72.2487 80.9962 72.8914 80.8153 73.5155 80.581C79.6199 78.265 82.7054 71.4519 80.4194 65.3361C80.2383 64.8519 80.0749 64.468 79.9174 64.1254L88.973 60.1154L100.706 91.4342Z" fill="#1E959B"/>
</g>
<defs>
<clipPath id="clip0_7055_1129">
<rect width="119.917" height="119.917" fill="white" transform="translate(0.0388184 0.54361)"/>
</clipPath>
</defs>
</svg>
