<svg xmlns="http://www.w3.org/2000/svg" width="121" height="121" fill="none" viewBox="0 0 121 121"><g clip-path="url(#clip0_7055_1069)"><path fill="#1E959B" d="M49.1631 56.8038C48.8059 56.8038 48.4471 56.722 48.1157 56.5564C47.3222 56.1597 46.8212 55.3486 46.8212 54.4616V49.5392H43.9947C41.3411 49.5392 39.1821 47.3805 39.1821 44.7268V19.1059C39.1821 16.4518 41.3416 14.2926 43.9957 14.2926H115.895C118.549 14.2926 120.709 16.4518 120.709 19.1059V44.7271C120.709 47.3807 118.55 49.5394 115.896 49.5394H59.6319L50.5686 56.3358C50.1554 56.6452 49.6606 56.8038 49.1631 56.8038ZM43.9957 18.9768C43.9242 18.9768 43.8664 19.0347 43.8664 19.1059V44.7271C43.8664 44.7978 43.924 44.8552 43.9947 44.8552H49.1633C50.4566 44.8552 51.5054 45.9037 51.5054 47.1973V49.7779L57.446 45.3231C57.8512 45.0191 58.3444 44.8549 58.851 44.8549H115.896C115.967 44.8549 116.024 44.7976 116.024 44.7268V19.1059C116.024 19.0347 115.966 18.9768 115.895 18.9768H43.9957Z"/><path fill="#1E959B" d="M103.913 28.0526H55.9788C54.6855 28.0526 53.6367 27.0038 53.6367 25.7104C53.6367 24.4171 54.6855 23.3683 55.9788 23.3683H103.913C105.206 23.3683 106.255 24.4171 106.255 25.7104C106.255 27.004 105.206 28.0526 103.913 28.0526Z"/><path fill="#1E959B" d="M103.912 39.0621H95.4759C94.1826 39.0621 93.1338 38.0133 93.1338 36.72C93.1338 35.4264 94.1826 34.3779 95.4759 34.3779H103.912C105.206 34.3779 106.254 35.4264 106.254 36.72C106.254 38.0133 105.206 39.0621 103.912 39.0621Z"/><path fill="#1E959B" d="M83.7666 39.0622C82.7878 39.0622 81.8919 38.4278 81.5617 37.508C81.2359 36.6007 81.516 35.5577 82.2517 34.9349C83.0185 34.2859 84.1486 34.2009 85.0025 34.7317C85.8202 35.2399 86.2523 36.2325 86.0619 37.1768C85.8438 38.2577 84.8714 39.0622 83.7666 39.0622Z"/><path fill="#1E959B" d="M72.2894 39.0621H55.9788C54.6855 39.0621 53.6367 38.0133 53.6367 36.72C53.6367 35.4264 54.6855 34.3779 55.9788 34.3779H72.2894C73.5827 34.3779 74.6315 35.4264 74.6315 36.72C74.6315 38.0133 73.5827 39.0621 72.2894 39.0621Z"/><path fill="#1E959B" d="M18.3001 30.0991C10.1516 30.0991 3.52222 23.4697 3.52222 15.3212C3.52222 7.17276 10.1516 0.54361 18.3001 0.54361C26.4488 0.54361 33.0782 7.17299 33.0782 15.3215C33.0782 23.47 26.4488 30.0991 18.3001 30.0991ZM18.3001 5.22786C12.7345 5.22786 8.20647 9.75588 8.20647 15.3215C8.20647 20.8871 12.7345 25.4151 18.3001 25.4151C23.8659 25.4151 28.3939 20.8871 28.3939 15.3215C28.3939 9.75588 23.8659 5.22786 18.3001 5.22786Z"/><path fill="#1E959B" d="M33.4658 56.8036H3.13412C1.84056 56.8036 0.791992 55.7548 0.791992 54.4615V39.0157C0.791992 35.4383 3.70255 32.5277 7.27991 32.5277H29.32C32.8974 32.5277 35.8079 35.4383 35.8079 39.0157V54.4615C35.8079 55.7548 34.7591 56.8036 33.4658 56.8036ZM5.47624 52.1194H31.1237V39.0157C31.1237 38.0212 30.3145 37.212 29.32 37.212H7.27991C6.28544 37.212 5.47624 38.0212 5.47624 39.0157V52.1194Z"/><path fill="#1E959B" d="M72.3375 120.46C71.8398 120.46 71.3456 120.302 70.9323 119.992L61.869 113.196H5.60459C2.95096 113.196 0.791992 111.037 0.791992 108.383V82.7625C0.791992 80.1084 2.9512 77.9492 5.60529 77.9492H77.505C80.1591 77.9492 82.3185 80.1084 82.3185 82.7625V108.383C82.3185 111.037 80.1595 113.196 77.5059 113.196H74.6794V118.118C74.6794 119.005 74.1782 119.816 73.3849 120.213C73.0533 120.379 72.6945 120.46 72.3375 120.46ZM5.60529 82.6335C5.53409 82.6335 5.47624 82.6913 5.47624 82.7625V108.383C5.47624 108.454 5.53386 108.512 5.60459 108.512H62.6496C63.1562 108.512 63.6494 108.676 64.0546 108.98L69.9952 113.435V110.854C69.9952 109.561 71.0437 108.512 72.3373 108.512H77.5059C77.5766 108.512 77.6343 108.454 77.6343 108.383V82.7625C77.6343 82.6913 77.5764 82.6335 77.505 82.6335H5.60529Z"/><path fill="#1E959B" d="M65.5228 91.7092H17.5892C16.2959 91.7092 15.2471 90.6604 15.2471 89.3671C15.2471 88.0738 16.2956 87.025 17.5892 87.025H65.5228C66.8164 87.025 67.865 88.0738 67.865 89.3671C67.865 90.6606 66.8164 91.7092 65.5228 91.7092Z"/><path fill="#1E959B" d="M26.0245 102.719H17.5882C16.2949 102.719 15.2461 101.67 15.2461 100.376C15.2461 99.0832 16.2947 98.0344 17.5882 98.0344H26.0245C27.3179 98.0344 28.3667 99.0832 28.3667 100.376C28.3667 101.67 27.3181 102.719 26.0245 102.719Z"/><path fill="#1E959B" d="M37.7346 102.719C36.7547 102.719 35.8623 102.085 35.5318 101.165C35.2032 100.25 35.489 99.1964 36.2382 98.5751C36.9643 97.9731 38.0068 97.8694 38.8382 98.3118C39.7013 98.7711 40.1943 99.7539 40.0514 100.72C39.8844 101.852 38.879 102.719 37.7346 102.719Z"/><path fill="#1E959B" d="M65.5221 102.719H49.2115C47.9182 102.719 46.8694 101.67 46.8694 100.376C46.8694 99.0832 47.9182 98.0344 49.2115 98.0344H65.5221C66.8156 98.0344 67.8642 99.0832 67.8642 100.376C67.8642 101.67 66.8156 102.719 65.5221 102.719Z"/><path fill="#1E959B" d="M103.2 93.7555C95.0517 93.7555 88.4224 87.1262 88.4224 78.9777C88.4224 70.8292 95.0517 64.1998 103.2 64.1998C111.349 64.1998 117.978 70.8292 117.978 78.9777C117.978 87.1264 111.349 93.7555 103.2 93.7555ZM103.2 68.8843C97.6346 68.8843 93.1066 73.4123 93.1066 78.9779C93.1066 84.5435 97.6346 89.0715 103.2 89.0715C108.766 89.0715 113.294 84.5435 113.294 78.9779C113.294 73.4123 108.766 68.8843 103.2 68.8843Z"/><path fill="#1E959B" d="M118.366 120.46H88.0348C86.7414 120.46 85.6926 119.411 85.6926 118.118V102.672C85.6926 99.0949 88.6032 96.1844 92.1805 96.1844H114.221C117.798 96.1844 120.709 99.0949 120.709 102.672V118.118C120.709 119.411 119.66 120.46 118.366 120.46ZM90.3769 115.776H116.024V102.672C116.024 101.678 115.215 100.869 114.221 100.869H92.1805C91.1861 100.869 90.3769 101.678 90.3769 102.672V115.776Z"/></g><defs><clipPath id="clip0_7055_1069"><rect width="119.917" height="119.917" fill="#fff" transform="translate(0.791992 0.54361)"/></clipPath></defs></svg>