<svg width="121" height="121" viewBox="0 0 121 121" fill="none" xmlns="http://www.w3.org/2000/svg">
<g clip-path="url(#clip0_7055_1143)">
<path d="M43.2286 90.9567C42.2603 90.9567 41.4753 91.7415 41.4753 92.71V101.944C41.4753 102.912 42.2603 103.697 43.2286 103.697C44.1969 103.697 44.9819 102.912 44.9819 101.944V92.71C44.9819 91.7415 44.1969 90.9567 43.2286 90.9567Z" fill="#1E959B"/>
<path d="M77.1668 90.9567C76.1985 90.9567 75.4135 91.7415 75.4135 92.71V101.944C75.4135 102.912 76.1985 103.697 77.1668 103.697C78.135 103.697 78.9201 102.912 78.9201 101.944V92.71C78.9201 91.7415 78.135 90.9567 77.1668 90.9567Z" fill="#1E959B"/>
<path d="M111.235 84.8356L105.364 82.4804V80.981C106.517 80.3404 107.552 79.507 108.422 78.5233C112.136 78.9616 115.689 77.4793 117.989 74.497C120.368 71.4131 120.862 67.4388 119.313 63.8656L116.677 57.787C116.479 57.3302 116.342 56.8484 116.271 56.3556C115.703 52.4072 113.73 48.794 110.715 46.1819C107.7 43.5695 103.843 42.1311 99.8536 42.1311C95.8645 42.1311 92.0073 43.5695 88.9923 46.1819C85.9776 48.794 84.0041 52.407 83.436 56.3556C83.365 56.8486 83.2287 57.3305 83.0304 57.787L80.3944 63.8656C78.845 67.4385 79.3399 71.4129 81.7185 74.497C83.7533 77.1352 86.768 78.6054 90.0069 78.6051C90.4247 78.6051 90.8466 78.5803 91.2707 78.5305C92.0608 79.4266 92.9875 80.1983 94.0196 80.8126V82.4801L88.1491 84.8356C87.7664 84.9892 87.3929 85.1629 87.0286 85.3551C85.8928 83.2658 84.2711 81.4389 82.2532 80.051L74.6067 74.7923C74.6509 73.8266 74.2647 72.8539 73.478 72.1864L70.371 69.55C70.0764 69.2998 69.7454 69.1109 69.3957 68.9826V65.433C72.6799 63.0509 75.0088 59.4316 75.6914 55.2634H75.8784C79.2214 55.2634 81.9411 52.5437 81.9411 49.201C81.9411 47.7738 81.4441 46.461 80.6158 45.4242L81.8691 36.5149C82.7724 30.0923 78.2884 24.0911 71.873 23.1368L71.6235 23.0999C69.5722 19.7518 66.395 17.3362 62.5829 16.2553L62.124 16.1251C57.0698 14.692 51.6636 15.5474 47.2916 18.4724C46.4867 19.0107 46.2707 20.0997 46.8091 20.9043C47.3475 21.7089 48.4361 21.9252 49.2412 21.3866C52.7574 19.0344 57.1042 18.3464 61.1674 19.4986L61.6263 19.6288C64.8161 20.5333 67.4346 22.6412 68.9994 25.5643C70.076 27.5755 70.5512 29.7872 70.414 31.9996L69.2255 30.978C68.1392 30.0443 66.5418 30.0195 65.4276 30.9196L63.8686 32.1789H54.9691C49.1943 32.1789 44.4959 36.8773 44.4959 42.6521V43.1391C44.0309 43.1407 43.5788 43.1964 43.144 43.2976C41.1618 37.7174 41.7208 31.4304 44.7 26.2876C45.1853 25.4495 44.8996 24.377 44.0618 23.8914C43.2239 23.4064 42.1514 23.6918 41.6659 24.5296C38.063 30.7494 37.4788 38.3963 40.069 45.0887C39.0686 46.1702 38.4559 47.6151 38.4559 49.201C38.4559 52.5437 41.1756 55.2634 44.5186 55.2634H44.7056C45.3882 59.4316 47.717 63.0509 51.0013 65.433V68.9826C50.6516 69.1107 50.3206 69.2998 50.0263 69.5497L46.9189 72.1864C46.1323 72.8539 45.7461 73.8268 45.7903 74.7923L38.1438 80.051C36.59 81.1196 35.2705 82.4483 34.227 83.9569C33.5507 83.5833 32.8459 83.264 32.116 83.0054L26.9244 81.1666V79.7847C29.5688 78.1509 31.4699 75.4275 31.9994 72.2454H32.7839C35.8601 72.2454 38.3627 69.7428 38.3627 66.6668C38.3627 65.2857 37.8572 64.0215 37.0229 63.0462L37.3359 59.3407C37.771 54.0046 35.4426 48.9429 31.1073 45.8017C26.772 42.6601 21.237 42.0235 16.3016 44.0985L12.8069 45.5677C7.39579 46.7623 3.7791 51.9474 4.55171 57.4551L5.33345 63.0282C4.49 64.0058 3.97827 65.2773 3.97827 66.6668C3.97827 69.7428 6.4808 72.2454 9.55701 72.2454H10.3416C10.8367 75.221 12.5318 77.7946 14.912 79.4523V81.1666L9.72042 83.0052C8.99339 83.2628 8.27711 83.5854 7.59169 83.9646C6.74426 84.4331 6.43709 85.4998 6.90557 86.3472C7.22537 86.9258 7.82406 87.2524 8.44145 87.2524C8.72829 87.2524 9.01934 87.1818 9.28817 87.0331C9.80551 86.7469 10.3448 86.5038 10.8907 86.3105L15.3768 84.7215C16.2852 86.8867 18.4266 88.4114 20.9179 88.4114C23.4092 88.4114 25.5505 86.8867 26.459 84.7215L30.9451 86.3107C31.5094 86.5104 32.0541 86.7589 32.5761 87.0506C31.8797 88.8161 31.5064 90.7185 31.5064 92.6707V103.072C31.5064 104.041 32.2914 104.825 33.2596 104.825C34.2279 104.825 35.0129 104.041 35.0129 103.072V92.6707C35.0129 88.7817 36.9261 85.1442 40.1304 82.9404L47.4325 77.9185L50.4255 81.9202C51.0689 82.7805 52.0776 83.2651 53.1181 83.2651C53.4421 83.2651 53.7694 83.2181 54.0894 83.1207L58.4449 81.7952V103.806C58.4449 104.775 59.2299 105.56 60.1981 105.56C61.1664 105.56 61.9514 104.775 61.9514 103.806V81.7952L66.3073 83.1209C66.6273 83.2182 66.9542 83.2651 67.2782 83.2651C68.3185 83.2651 69.3274 82.7803 69.9708 81.9202L72.9635 77.9185L80.2656 82.9404C83.4702 85.1442 85.3831 88.7817 85.3831 92.6707V103.072C85.3831 104.041 86.1681 104.825 87.1364 104.825C88.1047 104.825 88.8897 104.041 88.8897 103.072V92.6707C88.8897 91.2898 88.7025 89.9337 88.3471 88.633C88.7025 88.4257 89.0721 88.2438 89.4543 88.0904L94.5451 86.0477C95.447 87.989 97.4142 89.339 99.6919 89.339C101.969 89.339 103.937 87.9892 104.839 86.048L109.93 88.0904C113.149 89.3818 115.229 92.4575 115.229 95.926V98.8937C115.229 99.8623 116.014 100.647 116.982 100.647C117.95 100.647 118.735 99.8623 118.735 98.8937V95.926C118.735 91.0168 115.791 86.6637 111.235 84.8356ZM41.9618 49.2008C41.9618 47.7991 43.0963 46.6583 44.4952 46.6459V51.7552C43.0965 51.7431 41.9618 50.6025 41.9618 49.2008ZM32.7834 68.7385H32.1504V64.5942H32.7834C33.9261 64.5942 34.8556 65.5239 34.8556 66.6664C34.8556 67.8088 33.9261 68.7385 32.7834 68.7385ZM7.48439 66.6666C7.48439 65.5239 8.41387 64.5945 9.55654 64.5945H10.1896V68.7388H9.55654C8.4141 68.7385 7.48439 67.8091 7.48439 66.6666ZM12.319 55.6833C11.156 57.2893 10.4528 59.1387 10.2515 61.0876H9.55654C9.23487 61.0876 8.92022 61.1166 8.61327 61.169L8.02393 56.9674C7.49982 53.2317 9.98528 49.7172 13.6822 48.9661C13.7953 48.9432 13.9061 48.909 14.0127 48.8642L17.6605 47.3304C21.4574 45.7339 25.7149 46.2242 29.0496 48.6404C32.3844 51.0572 34.1756 54.9504 33.8413 59.0498L33.6631 61.1573C33.3765 61.1117 33.0829 61.0874 32.7834 61.0874H32.135C31.9839 59.6008 30.7251 58.4367 29.1993 58.4367H24.8698C21.7842 58.4367 18.7309 57.4097 16.2726 55.5454L15.7765 55.1692C15.2557 54.7742 14.5857 54.6026 13.9398 54.6989C13.2932 54.7952 12.7024 55.154 12.319 55.6833ZM15.1591 57.74C15.1587 57.7407 15.1584 57.7412 15.1582 57.7417C15.1584 57.7412 15.1589 57.7407 15.1591 57.74ZM13.6964 62.2546C13.6964 60.9866 14.002 59.7612 14.5871 58.6578C17.5731 60.7802 21.2033 61.9437 24.87 61.9437H28.6438V70.4376C28.6438 74.5588 25.291 77.9115 21.1701 77.9115C17.0492 77.9115 13.6964 74.5588 13.6964 70.4376V62.2546ZM20.9176 84.9048C19.5393 84.9048 18.4181 83.7834 18.4181 82.4053V81.0686C19.2978 81.2965 20.2201 81.4181 21.1701 81.4181C21.9402 81.4181 22.6915 81.3377 23.4174 81.186V82.4053C23.4174 83.7834 22.296 84.9048 20.9176 84.9048ZM75.9004 51.7552V46.6459C77.2993 46.6581 78.4338 47.7991 78.4338 49.2008C78.4338 50.6025 77.2993 51.7431 75.9004 51.7552ZM78.3959 36.0259L77.3692 43.3242C76.8988 43.2048 76.4067 43.1405 75.9002 43.1386V42.9967C75.9002 40.1699 75.0258 37.4509 73.4425 35.1789C74.1328 32.52 74.1085 29.7825 73.3939 27.1806C76.7805 28.626 78.9312 32.2207 78.3959 36.0259ZM48.002 52.7174V42.6517C48.002 38.8101 51.1273 35.685 54.9687 35.685H64.4879C64.8888 35.685 65.2775 35.5476 65.5894 35.2958L67.2803 33.9299L68.851 35.2799C71.1025 37.2151 72.3936 40.028 72.3936 42.9967V52.7172C72.3936 59.4421 66.9226 64.9131 60.1977 64.9131C53.4728 64.9131 48.002 59.4421 48.002 52.7174ZM60.1979 68.4199C62.2048 68.4199 64.1227 68.0375 65.8886 67.3483V69.5948L60.1979 72.3851L54.5072 69.5948V67.3483C56.2729 68.0372 58.191 68.4199 60.1979 68.4199ZM53.1698 79.7347L49.393 74.685L52.1508 72.3447L58.4444 75.4305V78.1294L53.1698 79.7347ZM67.2258 79.7347L61.9512 78.1296V75.4307L68.2448 72.3449L71.0026 74.6852L67.2258 79.7347ZM84.4948 72.3555C82.9075 70.2973 82.5772 67.6454 83.6114 65.2609L86.2474 59.1824C86.5695 58.4399 86.7914 57.657 86.9066 56.8552C87.827 50.4604 93.3929 45.6379 99.8536 45.6379C106.314 45.6379 111.88 50.4604 112.8 56.8552C112.916 57.6568 113.137 58.4397 113.46 59.1824L116.096 65.2609C117.13 67.6452 116.8 70.2973 115.212 72.3555C114.037 73.8792 112.371 74.8173 110.543 75.0424C110.921 74.0615 111.167 73.0159 111.257 71.926C111.337 70.961 110.62 70.1138 109.655 70.0339C108.691 69.9556 107.843 70.6716 107.763 71.6364C107.425 75.715 103.951 78.91 99.8536 78.91C95.4758 78.91 91.9145 75.3487 91.9145 70.9708V62.5599C91.9145 60.6949 92.4634 58.8607 93.4744 57.3038C95.7432 59.0356 98.5398 60.0261 101.397 60.1016L107.793 60.2704V64.309C107.793 65.2775 108.578 66.0623 109.546 66.0623C110.514 66.0623 111.299 65.2775 111.299 64.309V59.7956C111.299 58.1466 110.008 56.8208 108.36 56.7776L101.489 56.5966C99.2641 56.5377 97.0883 55.7319 95.3624 54.3281L94.9093 53.9595C94.3749 53.5249 93.7038 53.3257 93.0186 53.3993C92.3339 53.4725 91.7198 53.8091 91.2898 54.3466C89.4311 56.6689 88.4072 59.5859 88.4072 62.5606V70.9715C88.4072 72.4039 88.6739 73.7745 89.1567 75.0392C87.3319 74.8124 85.6686 73.8773 84.4948 72.3555ZM99.6916 85.8322C98.4973 85.8322 97.5255 84.8606 97.5255 83.6661V82.1781C98.2775 82.334 99.056 82.4168 99.8534 82.4168C100.536 82.4168 101.205 82.3527 101.858 82.2349V83.6663C101.858 84.8606 100.886 85.8322 99.6916 85.8322Z" fill="#1E959B"/>
<path d="M4.04378 89.3719C3.17227 88.949 2.12381 89.3142 1.70161 90.1857C0.762316 92.1262 0.285889 94.2016 0.285889 96.3545V101.943C0.285889 102.912 1.0709 103.697 2.03918 103.697C3.00746 103.697 3.79247 102.912 3.79247 101.943V96.3545C3.79247 94.7353 4.15084 93.1742 4.85801 91.7138C5.27996 90.8423 4.91551 89.7936 4.04378 89.3719Z" fill="#1E959B"/>
</g>
<defs>
<clipPath id="clip0_7055_1143">
<rect width="119.917" height="119.917" fill="white" transform="translate(0.285889 0.54361)"/>
</clipPath>
</defs>
</svg>
