<svg width="121" height="121" viewBox="0 0 121 121" fill="none" xmlns="http://www.w3.org/2000/svg">
<path d="M92.3442 90.4811C95.4433 90.4811 97.9653 87.9591 97.9653 84.8601C97.9653 81.761 95.4433 79.239 92.3442 79.239C89.2451 79.239 86.7231 81.761 86.7231 84.8601C86.7231 87.9591 89.2451 90.4811 92.3442 90.4811ZM92.3442 82.9864C93.3767 82.9864 94.2179 83.8258 94.2179 84.8601C94.2179 85.8943 93.3767 86.7337 92.3442 86.7337C91.3118 86.7337 90.4705 85.8943 90.4705 84.8601C90.4705 83.8258 91.3118 82.9864 92.3442 82.9864Z" fill="#1E959B"/>
<path d="M111.381 76.9493C110.813 75.589 111.115 74.0432 112.147 73.0089L114.874 70.2808L106.922 62.3288L104.192 65.0569C103.159 66.0912 101.612 66.391 100.18 65.7914C98.8348 65.2368 97.9654 63.9365 97.9654 62.4787V58.6283H94.1224C93.9519 55.606 93.3917 52.6849 92.4623 49.9174L114.145 28.235C117.002 25.3776 118.576 21.5796 118.576 17.5399C118.576 9.20196 111.791 2.4173 103.453 2.4173C99.4138 2.4173 95.6158 3.9912 92.7602 6.84672L71.1003 28.5086C68.2991 27.568 65.3293 27.0208 62.2621 26.8578C59.6763 22.3403 54.8178 19.2806 49.2492 19.2806C47.8233 19.2806 46.448 19.4942 45.1383 19.8671C41.9043 13.7869 35.6218 9.91209 28.6385 9.91209C18.3069 9.91209 9.90153 18.3175 9.90153 28.6491C9.90153 30.0843 10.0777 31.4971 10.3981 32.8799C5.7794 34.2777 2.40674 38.5703 2.40674 43.6387C2.40674 49.8387 7.44886 54.8809 13.6489 54.8809H27.2407C26.9297 56.734 26.7648 58.6152 26.7648 60.502C26.7648 64.626 27.5274 67.9818 28.7584 70.8485L12.0432 87.5657L2.74213 111.748C2.51916 112.325 2.40674 112.932 2.40674 113.552C2.40674 116.329 4.66642 118.587 7.44137 118.587C8.06156 118.587 8.66864 118.472 9.24761 118.251L33.4296 108.95L45.6517 96.7262C45.5599 97.129 45.5018 97.545 45.5018 97.9759C45.5018 99.4206 46.0658 100.727 46.9633 101.723C46.0639 102.72 45.5018 104.026 45.5018 105.471C45.5018 108.075 47.2912 110.252 49.6989 110.886C51.2953 115.458 55.5711 118.587 60.4914 118.587C65.4117 118.587 69.6875 115.458 71.2839 110.886C73.6916 110.252 75.481 108.075 75.481 105.471C75.481 105.33 75.4491 105.199 75.4398 105.062L77.7669 107.389L80.4969 104.661C81.5293 103.627 83.0714 103.325 84.5066 103.923C85.8519 104.483 86.7232 105.784 86.7232 107.241V111.092H97.9654V107.241C97.9654 105.784 98.8367 104.481 100.255 103.895C101.615 103.329 103.161 103.627 104.194 104.661L106.922 107.389L114.874 99.4374L112.147 96.7093C111.115 95.675 110.813 94.1292 111.411 92.6977C111.968 91.3524 113.268 90.4811 114.726 90.4811H118.576V79.239H114.726C113.268 79.239 111.968 78.3677 111.381 76.9493ZM83.3056 82.473C85.3498 80.4775 87.3977 78.4389 89.1646 76.0818C90.1839 75.7108 91.2444 75.4916 92.3443 75.4916C97.5101 75.4916 101.713 79.6943 101.713 84.8601C101.713 90.0258 97.5101 94.2285 92.3443 94.2285C87.1785 94.2285 82.9758 90.0258 82.9758 84.8601C82.9758 84.0487 83.1013 83.2505 83.3056 82.473ZM85.5559 38.0888L94.218 29.4248L100.937 36.1439L90.9296 46.1513C89.5262 43.2058 87.7125 40.4965 85.5559 38.0888ZM87.4989 17.4069L90.4706 14.4352L106.558 30.5228L103.586 33.4945L87.4989 17.4069ZM103.453 6.1647C109.725 6.1647 114.829 11.2687 114.829 17.5399C114.829 20.5772 113.646 23.4346 111.497 25.5837L109.208 27.8734L93.12 11.7858L95.4097 9.49613C97.5588 7.34887 100.414 6.1647 103.453 6.1647ZM84.8495 20.0563L91.5686 26.7754L82.9102 35.4337C80.5044 33.2752 77.7969 31.4596 74.8514 30.0544L84.8495 20.0563ZM90.4706 60.502C90.4706 70.2508 85.5615 75.04 80.3639 80.1084C76.7851 83.5991 73.1089 87.2078 70.9691 92.4673C70.6113 92.3942 70.2403 92.3548 69.8599 92.3548H62.3651V82.9864C62.3651 79.8873 59.8431 77.3653 56.744 77.3653H52.9966C51.9642 77.3653 51.1229 76.5258 51.1229 75.4916C51.1229 74.4573 51.9642 73.6179 52.9966 73.6179H71.7336C74.8327 73.6179 77.3547 71.0959 77.3547 67.9968C77.3547 64.8977 74.8327 62.3757 71.7336 62.3757H56.744C55.7116 62.3757 54.8703 61.5362 54.8703 60.502V54.8809H64.2388C69.4046 54.8809 73.6073 50.6782 73.6073 45.5124C73.6073 40.3466 69.4046 36.1439 64.2388 36.1439C64.1863 36.1439 64.1376 36.1589 64.0852 36.1589C64.1657 35.5331 64.2388 34.9072 64.2388 34.2702C64.2388 33.0448 64.0739 31.8587 63.7966 30.7176C78.7337 32.3815 90.4706 45.2013 90.4706 60.502ZM49.2492 97.9759C49.2492 96.9417 50.0905 96.1022 51.1229 96.1022H69.8599C70.8923 96.1022 71.7336 96.9417 71.7336 97.9759C71.7336 99.0102 70.8923 99.8496 69.8599 99.8496H51.1229C50.0905 99.8496 49.2492 99.0102 49.2492 97.9759ZM25.6668 97.9759L39.4404 84.2024C41.745 86.4883 43.8848 88.8004 45.4625 91.6166L32.3859 104.695L25.6668 97.9759ZM6.15414 43.6387C6.15414 39.5053 9.51555 36.1439 13.6489 36.1439C17.7823 36.1439 21.1437 39.5053 21.1437 43.6387H24.8911C24.8911 37.6016 20.1038 32.6738 14.1286 32.4208C13.8101 31.1954 13.6489 29.9307 13.6489 28.6491C13.6489 20.3842 20.3736 13.6595 28.6385 13.6595C34.1191 13.6595 39.0657 16.6387 41.6963 21.3435C37.7016 23.6875 34.8798 27.8153 34.3533 32.6326C31.0818 33.4383 28.6385 36.3743 28.6385 39.8913H32.3859C32.3859 37.8246 34.0666 36.1439 36.1333 36.1439C38.2 36.1439 39.8807 37.8246 39.8807 39.8913H43.6281C43.6281 36.453 41.2897 33.5807 38.1288 32.7C38.897 27.2438 43.5831 23.028 49.2492 23.028C55.4493 23.028 60.4914 28.0701 60.4914 34.2702C60.4914 35.2557 60.3303 36.2207 60.0792 37.1613C57.0063 38.6996 54.8703 41.8474 54.8703 45.5124H58.6177C58.6177 42.4133 61.1397 39.8913 64.2388 39.8913C67.3379 39.8913 69.8599 42.4133 69.8599 45.5124C69.8599 48.6115 67.3379 51.1335 64.2388 51.1335H13.6489C9.51555 51.1335 6.15414 47.7721 6.15414 43.6387ZM51.1229 54.8809V60.502C51.1229 63.6011 53.6449 66.1231 56.744 66.1231H71.7336C72.766 66.1231 73.6073 66.9625 73.6073 67.9968C73.6073 69.031 72.766 69.8705 71.7336 69.8705H52.9966C49.8975 69.8705 47.3755 72.3925 47.3755 75.4916C47.3755 78.5907 49.8975 81.1127 52.9966 81.1127H56.744C57.7764 81.1127 58.6177 81.9521 58.6177 82.9864V92.3548H51.1229C50.7425 92.3548 50.3716 92.3942 50.0137 92.4673C47.8739 87.2078 44.1977 83.5991 40.619 80.1084C35.4213 75.04 30.5122 70.2508 30.5122 60.502C30.5122 58.6077 30.7389 56.7302 31.0893 54.8809H51.1229ZM36.7648 81.5792L23.0174 95.3265L16.2983 88.6075L30.5947 74.3111C32.3541 77.073 34.5351 79.3776 36.7648 81.5792ZM14.3628 91.9707L29.0226 106.631L16.6113 111.405L9.58863 104.382L14.3628 91.9707ZM7.90417 114.753C7.09286 115.068 6.15414 114.421 6.15414 113.552C6.15414 113.393 6.18412 113.237 6.23845 113.091L8.1159 108.208L12.7833 112.876L7.90417 114.753ZM60.4914 114.839C57.724 114.839 55.2563 113.367 53.8885 111.092H67.0943C65.7265 113.367 63.2589 114.839 60.4914 114.839ZM69.8599 107.344H51.1229C50.0905 107.344 49.2492 106.505 49.2492 105.471C49.2492 104.436 50.0905 103.597 51.1229 103.597H69.8599C70.8923 103.597 71.7336 104.436 71.7336 105.471C71.7336 106.505 70.8923 107.344 69.8599 107.344ZM114.829 86.7337H114.726C111.745 86.7337 109.084 88.5138 107.922 91.3281C106.768 94.0955 107.386 97.2471 109.496 99.3587L109.575 99.4374L106.922 102.091L106.843 102.012C104.729 99.8984 101.574 99.2782 98.7505 100.462C95.998 101.602 94.218 104.26 94.218 107.241V107.344H90.4706V107.241C90.4706 104.26 88.6906 101.6 85.8763 100.436C83.1051 99.28 79.9535 99.9002 77.8437 102.012L77.765 102.091L75.2262 99.5517C75.3761 99.0477 75.481 98.5268 75.481 97.9759C75.481 96.6456 74.9976 95.439 74.2219 94.474C75.3873 91.3281 77.2142 88.8117 79.3408 86.4883C80.1465 92.9526 85.6646 97.9759 92.3443 97.9759C99.5768 97.9759 105.46 92.0907 105.46 84.8601C105.46 77.6294 99.5768 71.7442 92.3443 71.7442C92.1607 71.7442 91.9827 71.7629 91.8009 71.7704C93.0694 69.1378 93.9407 66.0856 94.1599 62.3757H94.218V62.4787C94.218 65.4598 95.998 68.1223 98.8104 69.2821C101.576 70.4401 104.731 69.8217 106.843 67.7082L106.922 67.6295L109.575 70.2827L109.496 70.3614C107.386 72.473 106.768 75.6265 107.947 78.452C109.084 81.2063 111.745 82.9864 114.726 82.9864H114.829V86.7337Z" fill="#1E959B"/>
</svg>
