<svg width="240" height="82" viewBox="0 0 240 82" fill="none" xmlns="http://www.w3.org/2000/svg">
<g clip-path="url(#clip0_7055_1234)">
<path d="M178.979 50.0876H185.238V18.314L178.979 18.8721V50.0876ZM182.089 5.39633C181.522 5.39592 180.96 5.50864 180.437 5.72787C179.914 5.9471 179.44 6.26845 179.043 6.6731C178.646 7.07775 178.333 7.55758 178.124 8.0845C177.914 8.61141 177.812 9.17483 177.823 9.74177C177.823 10.8731 178.272 11.9582 179.072 12.7582C179.872 13.5582 180.957 14.0076 182.089 14.0076C183.22 14.0076 184.305 13.5582 185.105 12.7582C185.905 11.9582 186.355 10.8731 186.355 9.74177C186.315 7.34956 184.441 5.39633 182.089 5.39633ZM232.998 18.3132L223.988 39.2431L214.381 18.314H201.903V15.5632C201.903 12.294 203.417 10.9385 206.527 10.9385C207.604 10.9577 208.674 11.1049 209.716 11.377L211.112 6.39373C209.132 5.73481 207.057 5.41149 204.971 5.43715C198.911 5.43715 195.642 9.38393 195.642 15.1247V18.314L190.3 18.7524V23.7768H195.642V50.0876H201.901V23.7359H210.074L220.917 46.3404C220 48.3337 218.884 50.5664 217.129 51.9219C215.575 53.1576 213.581 53.2771 211.668 52.8784L210.193 58.0215C213.022 59.0579 216.571 58.9382 219.203 57.5031C222.073 55.9085 223.986 52.9185 225.263 49.9684L239.616 18.1943H232.958V18.314L232.998 18.3132ZM158.249 45.3435C153.026 45.3036 148.641 40.998 148.641 34.181C148.641 27.3239 152.986 23.0581 158.249 22.9784C163.471 23.0183 167.856 27.3239 167.856 34.181C167.856 40.998 163.471 45.3435 158.249 45.3435ZM158.249 17.437C156.453 17.4197 154.671 17.7597 153.008 18.4373C151.345 19.1149 149.833 20.1165 148.561 21.3838V6.3141L142.701 6.83246V50.1274H148.561V47.0578C149.833 48.3251 151.345 49.3267 153.008 50.0042C154.671 50.6818 156.453 51.0219 158.249 51.0046C167.099 50.9648 173.876 43.988 173.876 34.2208C173.876 24.4536 167.058 17.5164 158.249 17.437ZM89.7975 23.0581C93.2262 23.0979 96.3358 25.1313 98.0111 28.2417L103.074 25.0922C101.743 22.7501 99.8107 20.8058 97.4769 19.4602C95.1431 18.1146 92.4923 17.4164 89.7985 17.4378C80.9088 17.4776 74.1709 24.4544 74.1709 34.2215C74.1709 43.9887 80.907 50.9257 89.7985 51.0053C92.494 51.0351 95.148 50.3405 97.4833 48.994C99.8187 47.6476 101.75 45.6987 103.074 43.3509L98.0111 40.2015C96.3368 43.3509 93.2281 45.385 89.7975 45.385C84.5751 45.3435 80.1893 41.0378 80.1893 34.181C80.1893 27.3241 84.5751 23.0979 89.7975 23.0581ZM121.093 45.3435C115.87 45.3036 111.485 40.998 111.485 34.181C111.485 27.3239 115.831 23.0581 121.093 22.9784C126.315 23.0183 130.701 27.3239 130.701 34.181C130.661 40.998 126.316 45.3435 121.093 45.3435ZM130.78 21.3838C129.508 20.1165 127.996 19.1149 126.333 18.4373C124.67 17.7597 122.889 17.4197 121.093 17.437C112.242 17.4768 105.465 24.4536 105.465 34.2208C105.465 43.988 112.201 50.925 121.093 51.0046C122.889 51.0219 124.67 50.6818 126.333 50.0042C127.996 49.3267 129.508 48.3251 130.78 47.0578V50.1274H136.64V18.2741L130.78 18.7925V21.3838ZM21.825 46.1012L33.5459 57.9814L45.2653 46.1012C45.775 45.5895 46.3808 45.1834 47.0478 44.9063C47.7148 44.6293 48.43 44.4867 49.1523 44.4867C49.8746 44.4867 50.5898 44.6293 51.2568 44.9063C51.9239 45.1834 52.5296 45.5895 53.0394 46.1012C54.0742 47.1543 54.654 48.5716 54.654 50.048C54.654 51.5244 54.0742 52.9417 53.0394 53.9948L33.5844 73.7287L14.0511 53.9945C8.88989 48.7225 5.99905 41.6385 5.99802 34.2606C5.99802 18.8721 18.3167 6.35391 33.5058 6.35391C37.1285 6.35831 40.7141 7.08311 44.0541 8.48615C47.3941 9.88918 50.4217 11.9424 52.9608 14.5264C53.9955 15.5795 54.5754 16.9968 54.5754 18.4732C54.5754 19.9496 53.9955 21.367 52.9608 22.42C52.451 22.9318 51.8453 23.3378 51.1783 23.6149C50.5113 23.8919 49.7961 24.0346 49.0738 24.0346C48.3515 24.0346 47.6364 23.8919 46.9694 23.6149C46.3023 23.3378 45.6966 22.9318 45.1869 22.42C43.6572 20.8647 41.8327 19.6299 39.8202 18.7879C37.8077 17.946 35.6475 17.5137 33.466 17.5164C24.3366 17.5164 16.9214 25.0113 16.9214 34.3002C16.9676 38.72 18.7253 42.9499 21.825 46.101V46.1012ZM33.5058 23.0581C34.9529 23.065 36.3845 23.3574 37.7185 23.9183C39.0525 24.4793 40.2627 25.2979 41.2799 26.3272C42.2985 27.3596 43.5119 28.1793 44.8499 28.7387C46.1878 29.2982 47.6236 29.5863 49.0738 29.5863C50.524 29.5863 51.9598 29.2982 53.2978 28.7387C54.6357 28.1793 55.8492 27.3596 56.8677 26.3272C58.9195 24.2118 60.067 21.3807 60.067 18.4337C60.067 15.4867 58.9195 12.6555 56.8677 10.5401C53.8084 7.45431 50.1698 5.0031 46.1607 3.32716C42.1517 1.65122 37.8511 0.783537 33.5058 0.773926C15.2869 0.772674 0.457348 15.7635 0.457348 34.2606C0.438897 43.1225 3.92055 51.6333 10.1449 57.9413L33.5058 81.6225L56.8677 57.9418C58.9196 55.8265 60.0671 52.9953 60.0671 50.0483C60.0671 47.1012 58.9196 44.27 56.8677 42.1547C55.8492 41.1224 54.6357 40.3027 53.2978 39.7432C51.9598 39.1837 50.524 38.8956 49.0738 38.8956C47.6236 38.8956 46.1878 39.1837 44.8499 39.7432C43.5119 40.3027 42.2985 41.1224 41.2799 42.1547L33.5058 50.0881L25.7319 42.1547C23.6757 40.043 22.5304 37.2085 22.5427 34.2611C22.5171 32.803 22.7815 31.3544 23.3204 29.9994C23.8594 28.6443 24.6621 27.4098 25.6821 26.3676C26.702 25.3253 27.9188 24.496 29.2619 23.9279C30.605 23.3598 32.0475 23.0641 33.5058 23.0581Z" fill="white"/>
</g>
<defs>
<clipPath id="clip0_7055_1234">
<rect width="239.16" height="80.8493" fill="white" transform="translate(0.456421 0.772156)"/>
</clipPath>
</defs>
</svg>
