<svg width="390" height="58" viewBox="0 0 390 58" fill="none" xmlns="http://www.w3.org/2000/svg">
<g clip-path="url(#clip0_7055_1246)">
<path d="M115.633 0.529724L122.886 16.8964L130.095 0.708621H136.729L143.923 16.8964L151.152 0.529724H158.404L147.55 24.9854H140.892L133.412 8.81216L125.932 24.9854H119.279L108.405 0.529724H115.633Z" fill="white"/>
<path d="M197.931 0.529704C199.988 0.480296 201.984 1.22882 203.501 2.61844C204.232 3.24218 204.816 4.01992 205.212 4.89594C205.607 5.77197 205.804 6.72459 205.788 7.68557V17.8392C205.803 18.7974 205.606 19.7471 205.211 20.6204C204.817 21.4938 204.234 22.2694 203.506 22.8918C201.989 24.2819 199.993 25.0305 197.936 24.9805H178.794C176.739 25.0252 174.746 24.2772 173.229 22.8918C172.507 22.2644 171.93 21.4875 171.539 20.6151C171.147 19.7426 170.95 18.7954 170.961 17.8392V7.68557C170.952 6.72826 171.152 5.78049 171.546 4.90801C171.94 4.03552 172.519 3.25922 173.243 2.63295C174.755 1.24576 176.742 0.492757 178.794 0.529704H197.931ZM178.547 6.81527C178.254 7.06144 178.02 7.37055 177.862 7.71961C177.705 8.06867 177.628 8.44871 177.638 8.83148V16.6884C177.636 17.0728 177.717 17.4531 177.873 17.8041C178.03 18.1551 178.26 18.4687 178.547 18.724C179.166 19.2616 179.961 19.5524 180.781 19.5411H195.973C196.792 19.5336 197.583 19.2375 198.206 18.7046C198.492 18.4523 198.721 18.142 198.878 17.7943C199.035 17.4467 199.116 17.0697 199.115 16.6884V8.82665C199.124 8.44195 199.047 8.06019 198.889 7.70899C198.732 7.35778 198.499 7.04591 198.206 6.79593C197.913 6.50875 197.563 6.28699 197.178 6.1453C196.793 6.00362 196.382 5.94522 195.973 5.97397H180.781C180.372 5.95732 179.963 6.02275 179.579 6.16641C179.196 6.31006 178.845 6.52904 178.547 6.81043V6.81527Z" fill="white"/>
<path d="M246.223 0.529557C248.284 0.477123 250.284 1.22589 251.803 2.6183C252.532 3.24318 253.115 4.02136 253.508 4.89729C253.902 5.77321 254.097 6.72526 254.08 7.68543V17.839C254.096 18.7976 253.9 19.7479 253.507 20.6221C253.113 21.4963 252.531 22.2729 251.803 22.8965C250.287 24.287 248.29 25.0356 246.233 24.9852H227.106C225.049 25.0311 223.055 24.2831 221.536 22.8965C220.811 22.2699 220.231 21.4929 219.837 20.6194C219.443 19.746 219.244 18.7972 219.254 17.839V7.68543C219.245 6.72812 219.444 5.78034 219.838 4.90786C220.232 4.03538 220.812 3.25907 221.536 2.6328C223.055 1.24666 225.05 0.498673 227.106 0.544062L246.223 0.529557ZM226.84 6.81512C226.546 7.06107 226.312 7.37013 226.155 7.71924C225.997 8.06836 225.921 8.44851 225.931 8.83133V16.6883C225.929 17.0727 226.009 17.4531 226.166 17.8041C226.322 18.1552 226.552 18.4687 226.84 18.7238C227.458 19.2618 228.254 19.5527 229.074 19.541H244.26C245.079 19.5328 245.868 19.2366 246.489 18.7045C246.775 18.4521 247.004 18.1418 247.161 17.7942C247.318 17.4466 247.399 17.0696 247.398 16.6883V8.8265C247.407 8.44181 247.33 8.06005 247.172 7.70884C247.015 7.35763 246.782 7.04576 246.489 6.79578C246.197 6.50923 245.847 6.28784 245.463 6.14617C245.079 6.00451 244.669 5.94577 244.26 5.97382H229.078C228.668 5.95652 228.259 6.02163 227.874 6.1653C227.49 6.30898 227.138 6.52829 226.84 6.81028V6.81512Z" fill="white"/>
<path d="M299.549 0.529724V5.97399H286.876V24.9806H280.199V5.97399H267.546V0.529724H299.549Z" fill="white"/>
<path d="M343.185 0.529724V5.97399H319.677V9.97257H340.062V15.325H319.677V19.5363H343.185V24.9806H313V0.529724H343.185Z" fill="white"/>
<path d="M380.657 0.52963C382.899 0.481816 385.072 1.30107 386.725 2.81661C387.521 3.49712 388.159 4.34346 388.594 5.2964C389.03 6.24933 389.251 7.28585 389.244 8.3334C389.252 9.29908 389.063 10.2563 388.689 11.1466C388.315 12.0369 387.764 12.8417 387.068 13.5117C385.6 14.9487 383.683 15.838 381.638 16.0308L389.602 24.9853H381.837L374.483 16.113H363.323V24.9853H356.651V0.52963H380.657ZM363.323 10.7219H380.014C380.356 10.7393 380.699 10.6879 381.021 10.5708C381.343 10.4537 381.638 10.2733 381.89 10.0402C382.13 9.82597 382.319 9.56157 382.446 9.26576C382.572 8.96994 382.631 8.64997 382.62 8.32856C382.638 8.00629 382.582 7.68411 382.455 7.38719C382.329 7.09027 382.135 6.82666 381.89 6.61696C381.645 6.37636 381.349 6.19272 381.025 6.07907C380.701 5.96543 380.356 5.92456 380.014 5.95939H363.323V10.7219Z" fill="white"/>
<path d="M123.408 36.3476L123.321 36.2122H122.05L121.987 36.3089L108.405 57.7524H109.827L113.168 52.5063H132.261L135.564 57.7524H137.014L123.408 36.3476ZM113.786 51.5248L122.707 37.4452L131.604 51.52L113.786 51.5248Z" fill="white"/>
<path d="M151.113 57.7524V36.2123H172.242C173.494 36.192 174.731 36.488 175.839 37.0729C176.879 37.5969 177.757 38.3921 178.382 39.3744C178.972 40.28 179.282 41.3397 179.272 42.4205C179.272 43.518 178.977 45.278 178.373 46.2208C177.756 47.1975 176.885 47.9881 175.854 48.5078C174.74 49.0861 173.501 49.3785 172.247 49.3588H152.592V57.7573L151.113 57.7524ZM152.597 48.3724H171.7C173.151 48.3192 175.191 47.8551 176.182 46.9993L176.235 46.9509C177.309 45.9839 177.875 43.8952 177.875 42.4205C177.892 41.7078 177.752 40.9999 177.467 40.3467C177.181 39.6935 176.756 39.1108 176.221 38.6395C175.225 37.716 173.156 37.2325 171.676 37.2325H152.592L152.597 48.3724Z" fill="white"/>
<path d="M193.599 57.7524V36.2123H214.728C215.98 36.192 217.218 36.488 218.325 37.0729C219.365 37.5969 220.244 38.3921 220.868 39.3744C221.459 40.2799 221.768 41.3396 221.758 42.4205C221.758 43.518 221.463 45.278 220.859 46.2208C220.242 47.1975 219.371 47.9881 218.34 48.5078C217.226 49.0861 215.987 49.3785 214.733 49.3588H195.078V57.7573L193.599 57.7524ZM195.083 48.3724H214.186C215.637 48.3192 217.677 47.8551 218.668 46.9993L218.722 46.9509C219.795 45.9839 220.361 43.8952 220.361 42.4205C220.377 41.7074 220.237 40.9993 219.951 40.3461C219.664 39.6929 219.238 39.1103 218.702 38.6395C217.706 37.716 215.637 37.2325 214.157 37.2325H195.078L195.083 48.3724Z" fill="white"/>
<path d="M250.865 36.3476L250.778 36.2122H249.506L249.443 36.3089L235.847 57.7524H237.297L240.638 52.5063H259.732L263.034 57.7524H264.485L250.865 36.3476ZM241.243 51.5248L250.164 37.45L259.055 51.52L241.243 51.5248Z" fill="white"/>
<path d="M305.839 39.3744C305.214 38.3921 304.336 37.5969 303.296 37.0729C302.188 36.488 300.951 36.192 299.699 36.2123H278.57V57.7524H280.054V49.3539H296.048L302.861 57.7524H304.345L297.533 49.3539H299.699C300.953 49.3736 302.193 49.0812 303.306 48.503C304.337 47.9832 305.208 47.1927 305.825 46.216C306.429 45.278 306.724 43.518 306.724 42.4156C306.734 41.337 306.427 40.2792 305.839 39.3744ZM303.697 46.9461L303.644 46.9944C302.653 47.8502 300.632 48.3144 299.162 48.3676H280.054V37.247H299.133C300.608 37.247 302.682 37.7305 303.678 38.654C304.214 39.1248 304.64 39.7074 304.926 40.3606C305.213 41.0138 305.353 41.7219 305.336 42.435C305.332 43.8903 304.766 45.9549 303.697 46.9461Z" fill="white"/>
<path d="M347.624 36.2122V37.3098H324.125V46.3658H344.486V47.3667H324.125V56.6548H347.624V57.7524H322.641V36.2122H347.624Z" fill="white"/>
<path d="M364.619 36.2122V57.7524H389.602V56.6548H366.104V36.2122H364.619Z" fill="white"/>
<path d="M92.773 9.21095C86.2423 2.18804 75.9615 -0.686391 66.6415 1.21862C60.4256 2.34954 55.0176 6.02321 50.5359 10.3511C49.2692 11.5419 46.0548 14.603 42.8405 17.8937C39.3883 21.4059 35.9355 25.1473 34.8979 26.9928C32.9847 30.9638 37.6955 35.8787 41.7009 33.8552C45.8252 31.4314 48.6483 27.4096 52.1349 24.2286C57.0159 19.6967 61.1397 13.71 67.7642 11.6352C77.5262 8.81206 88.4872 16.1507 89.9498 26.0911C91.9056 36.4743 82.6112 47.2483 72.0413 46.7126C66.846 46.7126 62.2285 43.9401 58.6994 40.3177C56.1798 42.8781 53.6141 45.3928 51.0035 47.8604C54.9581 51.6274 59.5074 54.893 64.8477 56.4063C75.9021 59.2039 88.5892 55.0883 95.3327 45.7513C103.326 35.0881 102.136 18.736 92.773 9.21192V9.21095Z" fill="white"/>
<path d="M59.8137 24.4076C55.6894 26.8309 52.8663 30.8527 49.3797 34.0332C44.4987 38.5656 40.4 44.5518 33.7504 46.627C23.9884 49.4502 13.0274 42.1111 11.5648 32.1707C9.60852 21.7879 18.9029 11.0145 29.4728 11.5497C34.6686 11.5497 39.2861 14.3221 42.8152 17.9446C45.3346 15.3842 47.9002 12.8695 50.5106 10.4019C46.5565 6.6349 42.0072 3.36931 36.6669 1.85594C25.6125 -0.941617 12.9254 3.17398 6.18192 12.5109C-1.87086 23.2167 -0.620996 39.5775 8.73289 49.076C15.2636 56.0999 25.5444 58.9738 34.8644 57.0693C41.089 55.9379 46.4888 52.2647 50.9699 47.9364C52.2367 46.746 55.4516 43.6849 58.6659 40.3937C62.1181 36.882 65.5703 33.1402 66.5992 31.2951C68.5212 27.2985 63.8104 22.3831 59.8137 24.4071V24.4076Z" fill="white"/>
</g>
<defs>
<clipPath id="clip0_7055_1246">
<rect width="388.75" height="57.3406" fill="white" transform="translate(0.852295 0.471985)"/>
</clipPath>
</defs>
</svg>
