<svg width="261" height="80" viewBox="0 0 261 80" fill="none" xmlns="http://www.w3.org/2000/svg">
<path d="M254.866 44.4646C252.687 48.455 249.108 53.0616 245.844 53.8307C245.604 53.953 245.334 54.006 245.064 53.9837C243.975 54.1367 243.024 53.6777 242.106 52.9086C240.066 50.8952 239.152 46.7678 239.152 44.6176C239.307 41.6982 240.241 37.4018 241.192 34.3294C241.568 33.122 242.029 31.9419 242.571 30.798C240.702 31.7201 238.213 32.6422 236.043 32.8113C235.359 32.8447 234.673 32.7933 234.002 32.6583C233.603 34.7982 233.03 36.9029 232.288 38.952C229.179 47.09 223.887 54.1528 220.618 54.7649C218.909 55.0749 216.419 52.9247 215.485 49.0872C213.306 52.3086 210.507 55.5299 207.708 55.84H207.548C206.535 55.9705 205.505 55.8727 204.535 55.5539C203.566 55.2352 202.682 54.7039 201.95 53.9998C200.081 51.9864 199.306 48.6242 199.306 44.1706C200.391 33.7334 212.062 25.4425 219.374 24.9794H219.843C225.756 24.8264 226.686 28.2008 226.845 29.1269C227 30.5081 226.531 31.7362 225.621 32.0422C225.307 32.0422 224.687 32.3483 223.907 32.6583C222.197 33.4234 220.018 34.1925 218.774 34.3455C218.15 34.3455 217.839 34.3455 217.55 34.0395C217.395 34.0395 217.24 33.7334 217.24 33.4234C217.08 32.8113 217.55 32.2154 218.325 31.1201C218.794 30.5081 220.194 28.6638 219.884 28.2048C219.479 28.0938 219.059 28.0423 218.639 28.0518C218.325 28.0518 218.015 28.2048 217.55 28.2048C212.245 29.1269 207.124 42.7895 207.757 49.5463C208.377 54.6119 212.11 50.0053 214.445 46.4739C214.327 43.1986 215.135 39.9556 216.779 37.1078C217.403 36.1897 220.357 35.4206 221.757 35.2676C221.94 35.1456 222.161 35.0914 222.381 35.1146C222.846 35.1146 223.315 34.9616 223.781 34.9616C224.081 34.8807 224.398 34.8805 224.699 34.9613C225 35.042 225.273 35.2006 225.49 35.4206C225.805 35.7267 225.805 36.1897 225.65 36.8018C223.781 41.7144 221.602 49.0872 221.757 50.7744C223.315 49.5664 228.449 40.9493 231.093 31.1201C230.938 30.6611 230.783 30.202 230.628 29.586C230.003 25.9015 231.717 23.4452 233.272 22.2171C233.859 21.8011 234.485 21.4411 235.141 21.142L235.296 20.989C235.916 20.6829 237.006 20.2199 237.785 20.2199C238.104 20.196 238.425 20.2484 238.719 20.3729C239.943 21.142 239.943 22.5231 239.943 22.9862C239.759 25.1356 239.008 27.1999 237.764 28.9739C237.764 29.1269 237.609 29.1269 237.609 29.2799H237.764C238.54 29.2799 239.784 28.8169 240.564 28.5108C242.576 27.6807 244.342 26.3604 245.697 24.6734L246.011 24.3674C246.396 23.8805 246.871 23.4705 247.411 23.1593C247.705 22.9671 248.038 22.8399 248.386 22.7863C248.735 22.7328 249.091 22.7543 249.431 22.8493C249.911 23.1281 250.334 23.4927 250.679 23.9244L250.834 24.0774C251.61 25.2854 251.765 26.9968 251.455 29.6061C251.299 31.6194 250.23 34.9817 249.12 38.6661C247.896 42.9626 246.631 47.4161 246.476 49.5664C247.566 48.9503 249.9 46.6511 251.299 44.1908C255.033 37.897 256.278 33.1375 256.278 33.1375C256.274 33.0987 256.274 33.0595 256.278 33.0207C256.285 32.9676 256.303 32.9165 256.331 32.8703C256.359 32.8242 256.396 32.784 256.439 32.7522C256.483 32.7203 256.533 32.6973 256.586 32.6847C256.638 32.672 256.693 32.6699 256.747 32.6785C257.034 32.613 257.334 32.6337 257.609 32.7377C257.883 32.8417 258.12 33.0244 258.289 33.2623C259.844 35.5575 255.021 44.1545 254.866 44.4646Z" fill="white"/>
<path d="M259.068 62.4272C256.265 58.1267 249.275 57.6676 246.464 57.6676C245.114 57.6501 243.764 57.7012 242.42 57.8207C236.038 58.2797 227.322 59.6649 217.99 61.042C207.409 62.7292 196.363 64.4204 187.341 65.0325C184.991 65.2096 182.876 65.2982 180.996 65.2982C174.786 65.2982 171.142 64.3439 170.069 62.5762C169.448 61.5024 169.76 59.9669 171.003 57.9696C171.088 57.8878 171.143 57.78 171.158 57.6636C171.248 57.269 171.253 56.86 171.173 56.4633C171.093 56.0665 170.929 55.6908 170.693 55.3604C170.468 55.1435 170.199 54.9764 169.903 54.8702C169.608 54.764 169.293 54.7211 168.979 54.7443C166.49 54.9013 162.911 58.1227 162.756 60.736C162.446 63.1923 162.911 65.1654 163.846 66.7237L163.691 66.8767C162.291 69.18 160.732 71.0202 159.178 73.1704C158.868 73.6295 158.398 74.0925 158.088 74.5516C157.623 75.0146 157.468 75.3207 157.309 75.3207C156.999 74.8576 156.534 72.7114 158.398 62.2702C160.568 49.4486 163.583 36.7806 167.424 24.3468C169.673 23.9315 171.865 23.2557 173.953 22.3334C174.538 22.1068 175.11 21.8501 175.667 21.5643C172.864 32.1585 168.975 48.8935 174.112 55.1912C175.512 57.0314 177.687 57.8005 180.335 57.6475C184.616 57.3375 188.737 54.4262 192.042 50.335C195.397 46.1361 197.726 41.2309 198.848 36C199.318 33.8498 199.158 30.4714 197.139 28.3211C195.739 26.7869 193.715 26.1708 191.381 26.6339C188.117 27.246 183.759 31.0633 180.335 36.459C182.824 25.0957 187.957 9.74194 189.671 4.37033C189.981 3.60123 190.136 2.98917 190.292 2.67912C190.447 2.06706 190.602 1.29796 190.292 0.685902C189.952 0.38502 189.507 0.226189 189.051 0.242966C188.472 0.284088 187.898 0.38669 187.341 0.548995C186.718 0.704694 185.94 0.85905 185.007 1.01206C181.743 1.47111 181.429 2.24021 180.804 3.92739V4.0804C179.095 8.997 178.47 10.9902 177.85 13.7445C177.618 14.7892 177.306 15.815 176.916 16.8128C176.707 17.698 176.447 18.5705 176.136 19.4261C175.516 19.2691 174.427 19.4261 172.558 19.4261C171.309 19.4638 170.062 19.5659 168.824 19.7322C170.069 16.0477 171.313 12.3633 172.713 8.8319C172.781 8.67997 172.802 8.51182 172.775 8.34804C172.747 8.18426 172.672 8.03197 172.558 7.90979C172.248 7.44672 171.623 7.59974 171.468 7.59974C170.942 7.65878 170.422 7.76251 169.914 7.90979C169.289 8.06281 168.514 8.21582 167.735 8.36883C167.424 8.36883 167.114 8.52185 166.645 8.52185C164.935 8.67486 163.067 8.98492 162.756 10.6721C162.132 13.7445 161.357 16.9658 160.422 20.6543C159.015 20.7325 157.614 20.8857 156.224 21.1133C153.73 21.4193 152.959 22.0354 152.486 22.9535V23.2636C152.486 24.0286 152.486 24.6447 152.955 25.1038C153.575 25.7199 154.82 25.7199 158.398 25.4138H159.329C158.864 27.407 158.239 29.4043 157.774 31.2485L154.51 44.1339C153.125 46.4486 151.565 48.6563 149.842 50.7377C149.311 51.4407 148.741 52.1129 148.132 52.751C146.418 54.7644 145.174 55.9724 144.243 56.2825C143.309 56.4355 143.464 53.2101 143.774 51.3699C144.398 48.1485 146.108 44.3071 147.198 41.8508C147.977 39.7005 148.752 38.0093 148.907 36.4752C149.376 33.2538 149.221 31.0995 148.287 30.1814C147.663 29.5653 146.887 29.4123 145.798 29.7184C145.643 29.7184 145.329 29.5653 145.174 29.5653C143.774 29.7184 141.285 31.5787 138.645 34.0189C137.865 34.6309 136.931 35.4 136.776 35.553C135.376 36.0161 134.911 36.0161 134.597 36.0161C134.609 35.8969 134.666 35.7864 134.756 35.7061C136.156 33.0968 136.001 29.5653 135.066 28.0312C134.921 27.7366 134.702 27.4834 134.43 27.2953C134.158 27.1072 133.842 26.9905 133.512 26.956C132.577 26.956 129.464 27.7251 127.909 30.1774C126.82 31.8646 126.665 34.0148 127.599 36.4711C125.11 47.3714 119.507 56.7375 117.806 58.1186C117.651 57.3536 117.806 55.3563 118.275 53.8222C119.499 49.3686 120.919 44.1581 121.699 41.2307C122.009 40.0227 122.319 39.0804 122.319 38.9274C122.639 37.6852 122.473 36.3698 121.854 35.243C121.074 33.8618 119.52 32.3236 115.631 32.3236H115.162C107.849 32.7867 96.1792 41.0777 95.0897 51.5189V51.6719C95.0897 51.8249 94.1594 53.0531 93.8452 53.6852C92.2905 56.1415 89.6464 59.826 88.2467 60.591H88.0917C87.9325 60.591 87.7775 60.438 87.6224 59.979C87.3123 58.7508 87.7775 56.7576 88.0917 55.5254C88.4018 53.9913 88.7119 52.4531 89.1771 50.7659C89.3362 50.1538 89.4913 49.5579 89.6463 49.0787C90.1115 47.2345 90.7358 45.2372 91.046 43.397C91.8253 39.4026 91.5111 36.6402 90.4216 35.2591C90.1618 34.922 89.8348 34.6409 89.4608 34.4332C89.0867 34.2254 88.6736 34.0954 88.2467 34.0511C85.7576 34.0511 81.5547 36.5074 77.666 41.883C77.9762 39.1167 77.666 37.1194 76.7316 36.0483C76.4905 35.7015 76.1641 35.4209 75.7829 35.2328C75.4018 35.0448 74.9784 34.9554 74.5526 34.9732C72.5328 34.9732 69.5744 36.6604 66.7752 39.5797C64.9064 41.4199 63.0416 44.8144 61.4706 47.8707C62.25 45.2574 63.0293 42.8011 63.6496 40.9609C64.1202 39.5811 64.4317 38.659 64.584 38.1946C64.6974 37.7809 64.6417 37.3399 64.4289 36.9664C64.2739 36.6604 63.4945 35.7584 59.6058 36.0483H59.4508C56.9617 36.2013 55.4056 36.6617 54.7827 37.4295C54.4743 37.7574 54.3062 38.1902 54.3134 38.6375C54.4685 40.0186 53.3831 46.9285 52.4486 53.0692C51.6693 57.8287 51.049 62.2822 50.8899 64.4325C50.8899 65.1976 50.8899 65.8136 51.2041 66.2727C51.4613 66.4916 51.7956 66.6016 52.1344 66.5787C52.3544 66.6037 52.5762 66.5493 52.7588 66.4257H52.9138C54.7827 66.1197 56.1782 65.6606 56.9617 65.0445C57.4268 64.5855 57.5819 63.8365 57.7369 63.0312C57.892 62.3018 58.1006 61.5845 58.3613 60.885C58.5163 60.5749 58.5163 60.2689 58.6714 60.1159C58.9815 59.1938 61.6256 52.9 62.7151 50.9028L63.0293 50.2907C63.9597 48.5995 64.8941 46.7593 65.8286 45.2211C66.6079 44.0131 67.3832 42.4588 68.6278 41.3837C69.0358 41.1059 69.4439 40.8522 69.8519 40.6146H70.4762C70.9414 41.2307 69.6969 44.4561 68.7624 46.7593C67.9871 48.9056 67.0527 51.1887 66.5875 53.5121C65.0288 59.9548 65.0288 62.7252 66.5875 63.9533C67.0632 64.3559 67.6706 64.5748 68.2972 64.5694C70.3375 64.4164 72.1859 61.65 74.9892 53.9752C75.1443 53.6691 75.1443 53.3591 75.2994 53.0531C78.5638 46.1432 81.8281 39.6965 84.1663 39.5435H84.4805C84.7906 40.3086 84.0112 42.4588 83.2359 44.303C82.4802 46.2046 81.8639 48.1572 81.3915 50.1458C80.6122 53.5201 79.5227 59.5078 81.8567 62.5802C82.2781 63.1662 82.839 63.6409 83.4901 63.9625C84.1412 64.2841 84.8625 64.4427 85.5903 64.4244C90.4176 64.5774 93.5269 59.0488 95.0816 55.0583C95.2393 57.9737 96.0173 60.1212 97.4156 61.5011C98.1482 62.2054 99.0326 62.7375 100.003 63.0575C100.973 63.3775 102.004 63.4773 103.018 63.3493H103.173C105.976 63.0393 108.776 59.8179 110.955 56.5925C111.885 60.43 114.378 62.5802 116.088 62.2742C119.352 61.6581 124.657 54.5953 127.758 46.4573C128.61 44.0522 129.285 41.5895 129.778 39.0885C130.835 39.6296 132.032 39.8442 133.214 39.7046C135.083 39.5515 137.417 38.7825 139.742 37.5543C138.963 39.0885 138.343 40.4696 138.184 41.3918C137.098 44.4641 136.009 48.7606 136.009 51.68C136.009 53.6933 136.939 57.6676 139.118 59.6649C140.208 60.74 141.452 61.1991 142.697 61.046H142.819C143.048 61.0447 143.272 60.9909 143.476 60.889C146.59 60.1199 149.854 56.7415 152.498 53.2101C151.878 55.9724 151.413 58.5857 150.943 61.348C149.389 69.945 149.854 75.4737 152.033 77.93C153.433 79.6212 155.456 79.6212 156.236 79.6212H156.546C160.59 79.3111 163.234 74.0925 165.115 70.5611C165.234 70.2851 165.39 70.0263 165.58 69.792C165.58 69.639 165.894 69.333 166.049 69.0269C168.383 70.7141 171.962 71.4832 176.63 71.1732C177 71.1968 177.371 71.1447 177.72 71.0202C191.72 69.639 201.211 68.2579 212.404 66.7237C217.537 65.9546 222.825 65.1855 228.893 64.4204C230.578 64.1165 232.288 63.9629 234.002 63.9614C243.024 63.3493 254.229 64.2714 256.404 72.8684V73.0214C256.563 73.6335 256.873 74.5556 257.628 74.4026C258.252 74.4026 258.562 73.7905 259.031 72.7154C259.186 72.5624 259.186 72.2523 259.342 72.0993C260.778 68.1089 260.778 64.8835 259.068 62.4272ZM179.095 44.9393C180.649 42.0239 182.049 39.4106 183.604 37.2644C187.027 32.3478 188.586 31.7357 189.051 31.7357C189.135 31.7256 189.221 31.734 189.301 31.7605C189.382 31.787 189.455 31.8308 189.516 31.8887C190.141 32.5048 190.296 34.345 189.986 36.4953C189.516 39.8737 187.341 45.5553 185.007 49.6988C184.24 51.2603 183.184 52.6669 181.894 53.8463C179.56 55.8395 178.94 54.3054 178.78 51.543C178.625 49.9887 178.78 47.9955 179.095 44.9393ZM115.439 36.8013C115.129 37.2644 114.819 38.0093 114.354 38.8147C113.929 39.4517 113.565 40.1256 113.264 40.828C112.579 42.4246 112.006 44.066 111.55 45.7406C111.085 47.2747 110.151 51.7283 110.151 54.0315C108.927 55.5657 107.662 57.716 105.793 58.6381C103.149 60.0192 103.928 52.9564 104.083 51.7283C105.173 44.5124 109.388 36.3745 113.419 35.6215C113.714 35.4964 114.034 35.4439 114.354 35.4685C115.129 35.3155 115.439 35.4685 115.598 35.7745C115.77 35.8631 115.77 36.1732 115.455 36.7852L115.439 36.8013Z" fill="white"/>
<path d="M53.6892 17.5937C53.2363 23.5975 49.3313 27.4188 41.4029 30.3382C41.0928 30.3382 40.7827 30.3382 40.6276 30.0281C40.5499 29.9153 40.5083 29.782 40.5083 29.6456C40.5083 29.5092 40.5499 29.3759 40.6276 29.2631C44.2062 25.2686 44.8264 22.6593 45.2957 20.356C46.071 16.3656 45.1406 14.8314 43.7369 13.7563C42.3373 12.8342 40.1584 12.5281 37.049 12.6811H36.7389C36.5798 12.6811 26.3133 13.6033 24.9055 22.8123C23.9711 28.647 26.6152 30.3382 31.7485 33.4065C33.8655 34.5928 35.8932 35.9277 37.8162 37.401C46.5321 43.6947 49.1762 48.3013 47.4665 54.289C45.4263 61.3518 37.6733 69.9488 22.4164 71.1769H21.9471C10.7462 71.946 5.45383 68.1086 3.27893 65.6523C1.10403 63.196 0.165519 59.9706 0.789834 57.0513C3.27893 45.539 14.1697 43.8477 17.4341 43.6947H18.6787C18.9929 43.6947 19.303 43.8477 19.303 44.1538C19.3193 44.2753 19.2984 44.3988 19.2432 44.5085C19.1879 44.6182 19.1008 44.7092 18.9929 44.7699C18.8378 44.9229 9.96684 50.4515 10.277 59.6686C10.4361 62.4309 11.0563 64.2752 12.4559 65.5033C14.1697 67.0388 17.2818 67.6522 21.7921 67.3435H22.2573C32.993 66.4214 38.5792 59.2056 38.4405 52.9118C38.3017 46.6181 31.6097 42.9256 26.3051 39.8573L25.5257 39.3942C20.3925 36.3259 14.4717 32.0254 14.945 23.8874C15.4143 16.2125 25.081 9.76179 37.9753 8.38063C45.5976 7.61153 49.4863 9.76179 51.3552 11.602C52.1622 12.3733 52.789 13.3089 53.1921 14.3437C53.5952 15.3785 53.7649 16.4876 53.6892 17.5937Z" fill="white"/>
<path d="M212.855 18.9753C204.144 14.0628 213.166 7.612 213.166 7.612C216.279 5.47785 218.923 22.5067 212.855 18.9753Z" fill="white"/>
<path d="M231.842 9.90717C231.368 12.8173 229.746 15.4236 227.329 17.1552C225.15 18.6894 219.551 19.6115 218.617 18.9954C217.992 18.6894 218.148 18.0733 218.617 17.3082C217.953 17.4979 217.267 17.6008 216.577 17.6143C216.577 17.6143 215.642 9.45618 222.816 4.84964C225.619 3.92753 226.239 8.38105 224.374 12.2185C228.263 9.76221 232.152 8.53407 231.842 9.90717Z" fill="white"/>
</svg>
